<svg xmlns="http://www.w3.org/2000/svg" width="480" height="369">
  <defs>
    <linearGradient id="grad_weekly" x1="0%" y1="0%" x2="100%" y2="0%">
      <stop offset="0%" stop-color="#bd00ff"/><stop offset="100%" stop-color="#ff0080"/>
    </linearGradient>
    <filter id="glow2">
      <feGaussianBlur stdDeviation="2" result="blur"/>
      <feMerge><feMergeNode in="blur"/><feMergeNode in="SourceGraphic"/></feMerge>
    </filter>
  </defs>
  <rect width="480" height="369" fill="#0d1117" rx="12"/>
  <text x="240" y="28" text-anchor="middle" fill="#ffffff"
        font-family="'Segoe UI', 'Apple SD Gothic Neo', sans-serif" font-size="17" font-weight="bold"
        filter="url(#glow2)">전체 활동 리포트</text>
  <text x="240" y="48" text-anchor="middle" fill="#8b949e"
        font-family="'Segoe UI', 'Apple SD Gothic Neo', sans-serif" font-size="12">전체 누적</text>
  <line x1="20" y1="58" x2="460" y2="58" stroke="#21262d" stroke-width="1"/>
  <text x="110" y="88" text-anchor="end" fill="#c9d1d9" font-family="'Segoe UI', 'Apple SD Gothic Neo', sans-serif" font-size="14">월</text>
  <rect x="120" y="72" width="250" height="22" fill="#161b22" rx="5"/>
  <rect x="120" y="72" width="177" height="22" fill="url(#grad_weekly)" rx="5"/>
  <text x="382" y="88" fill="#ffffff" font-family="'Segoe UI', 'Apple SD Gothic Neo', sans-serif" font-size="13" font-weight="bold">519</text>
  <text x="110" y="122" text-anchor="end" fill="#c9d1d9" font-family="'Segoe UI', 'Apple SD Gothic Neo', sans-serif" font-size="14">화</text>
  <rect x="120" y="106" width="250" height="22" fill="#161b22" rx="5"/>
  <rect x="120" y="106" width="189" height="22" fill="url(#grad_weekly)" rx="5"/>
  <text x="382" y="122" fill="#ffffff" font-family="'Segoe UI', 'Apple SD Gothic Neo', sans-serif" font-size="13" font-weight="bold">554</text>
  <text x="110" y="156" text-anchor="end" fill="#c9d1d9" font-family="'Segoe UI', 'Apple SD Gothic Neo', sans-serif" font-size="14">수</text>
  <rect x="120" y="140" width="250" height="22" fill="#161b22" rx="5"/>
  <rect x="120" y="140" width="195" height="22" fill="url(#grad_weekly)" rx="5"/>
  <text x="382" y="156" fill="#ffffff" font-family="'Segoe UI', 'Apple SD Gothic Neo', sans-serif" font-size="13" font-weight="bold">570</text>
  <text x="110" y="190" text-anchor="end" fill="#c9d1d9" font-family="'Segoe UI', 'Apple SD Gothic Neo', sans-serif" font-size="14">목</text>
  <rect x="120" y="174" width="250" height="22" fill="#161b22" rx="5"/>
  <rect x="120" y="174" width="182" height="22" fill="url(#grad_weekly)" rx="5"/>
  <text x="382" y="190" fill="#ffffff" font-family="'Segoe UI', 'Apple SD Gothic Neo', sans-serif" font-size="13" font-weight="bold">533</text>
  <text x="110" y="224" text-anchor="end" fill="#c9d1d9" font-family="'Segoe UI', 'Apple SD Gothic Neo', sans-serif" font-size="14">금</text>
  <rect x="120" y="208" width="250" height="22" fill="#161b22" rx="5"/>
  <rect x="120" y="208" width="250" height="22" fill="url(#grad_weekly)" rx="5"/>
  <text x="382" y="224" fill="#ffffff" font-family="'Segoe UI', 'Apple SD Gothic Neo', sans-serif" font-size="13" font-weight="bold">732</text>
  <text x="110" y="258" text-anchor="end" fill="#c9d1d9" font-family="'Segoe UI', 'Apple SD Gothic Neo', sans-serif" font-size="14">토</text>
  <rect x="120" y="242" width="250" height="22" fill="#161b22" rx="5"/>
  <rect x="120" y="242" width="157" height="22" fill="url(#grad_weekly)" rx="5"/>
  <text x="382" y="258" fill="#ffffff" font-family="'Segoe UI', 'Apple SD Gothic Neo', sans-serif" font-size="13" font-weight="bold">461</text>
  <text x="110" y="292" text-anchor="end" fill="#c9d1d9" font-family="'Segoe UI', 'Apple SD Gothic Neo', sans-serif" font-size="14">일</text>
  <rect x="120" y="276" width="250" height="22" fill="#161b22" rx="5"/>
  <rect x="120" y="276" width="131" height="22" fill="url(#grad_weekly)" rx="5"/>
  <text x="382" y="292" fill="#ffffff" font-family="'Segoe UI', 'Apple SD Gothic Neo', sans-serif" font-size="13" font-weight="bold">383</text>
  <text x="240" y="334" text-anchor="middle" fill="#8b949e" font-family="'Segoe UI', 'Apple SD Gothic Neo', sans-serif" font-size="11">활동일 7/7  ·  가장 활발: 금요일  ·  총 3752건</text>
  <text x="240" y="359" text-anchor="middle" fill="#484f58"
        font-family="'Segoe UI', 'Apple SD Gothic Neo', sans-serif" font-size="10">2026-04-30 01:50 KST</text>
</svg>