<svg viewBox="0 0 960 566" xmlns="http://www.w3.org/2000/svg" xmlns:xlink="http://www.w3.org/1999/xlink" role="img" aria-label="프로젝트 미니 디오라마 — 대표작 4종 (화이트 테마)">
<defs>
  <linearGradient id="tileT" x1="0" y1="0" x2="1" y2="1">
    <stop offset="0%" stop-color="#D5D8DF"/><stop offset="60%" stop-color="#C8CED8"/><stop offset="100%" stop-color="#C1C7D4"/>
  </linearGradient>
  <radialGradient id="cyanGlow" cx="50%" cy="50%" r="50%"><stop offset="0%" stop-color="#22D3EE" stop-opacity="0.4"/><stop offset="100%" stop-color="#22D3EE" stop-opacity="0"/></radialGradient>
  <radialGradient id="cyanGlow2" cx="50%" cy="50%" r="50%"><stop offset="0%" stop-color="#22D3EE" stop-opacity="0.35"/><stop offset="100%" stop-color="#22D3EE" stop-opacity="0"/></radialGradient>
  <radialGradient id="goldGlow" cx="50%" cy="50%" r="50%"><stop offset="0%" stop-color="#FFC831" stop-opacity="0.45"/><stop offset="100%" stop-color="#FFC831" stop-opacity="0"/></radialGradient>
  <radialGradient id="greenGlow" cx="50%" cy="50%" r="50%"><stop offset="0%" stop-color="#4ADE80" stop-opacity="0.4"/><stop offset="100%" stop-color="#4ADE80" stop-opacity="0"/></radialGradient>
  <radialGradient id="violetGlow" cx="50%" cy="50%" r="50%"><stop offset="0%" stop-color="#A78BFA" stop-opacity="0.4"/><stop offset="100%" stop-color="#A78BFA" stop-opacity="0"/></radialGradient>
  <filter id="blurS" x="-60%" y="-60%" width="220%" height="220%"><feGaussianBlur stdDeviation="2.2"/></filter>
</defs>
<rect width="960" height="566" fill="#FFFFFF"/>
<text x="480" y="40" text-anchor="middle" font-family="Consolas,monospace" font-size="14" font-weight="700" letter-spacing="5" fill="#D89B0A">SHIPPING NOW</text>
<text x="480" y="60" text-anchor="middle" font-family="'Malgun Gothic',sans-serif" font-size="11.5" fill="#6B7488">지금 만들고 있는 것들 — 각각 하나의 작은 세계</text>
<ellipse cx="480" cy="208" rx="46" ry="14" fill="#B7BECB" opacity="0.12" filter="url(#blurS)"/>
<g><animateTransform attributeName="transform" type="translate" values="0 0;0 -6;0 0" dur="5.5s" begin="0.0s" repeatCount="indefinite"/><polygon points="409.1,170.8 480.0,211.8 480.0,227.1 409.1,186.2" fill="#C4CAD4"/>
<polygon points="550.9,170.8 480.0,211.8 480.0,227.1 550.9,186.2" fill="#B9C0CD"/>
<polygon points="480.0,129.8 550.9,170.8 480.0,211.8 409.1,170.8" fill="url(#tileT)"/>
<polyline points="409.1,170.8 480.0,211.8 550.9,170.8" fill="none" stroke="#E5E7EB" stroke-width="1" opacity="0.55"/><polygon points="480.0,134.4 542.1,170.3 480.0,206.1 417.9,170.3" fill="none" stroke="#D89B0A" stroke-width="1" opacity="0.3"/><ellipse cx="480.0" cy="170.4" rx="31.4" ry="18.1" fill="url(#goldGlow)" opacity="0.5"/><line x1="464" y1="135" x2="464" y2="164" stroke="#4ADE80" stroke-width="1" opacity="0.7"/><polygon points="460.6,141.0 463.9,143.0 463.9,163.4 460.6,161.5" fill="#DFE1E5"/>
<polygon points="467.3,141.0 463.9,143.0 463.9,163.4 467.3,161.5" fill="#CCD0D8"/>
<polygon points="463.9,139.1 467.3,141.0 463.9,143.0 460.6,141.0" fill="#4ADE80"/><line x1="473" y1="132" x2="473" y2="169" stroke="#F87171" stroke-width="1" opacity="0.7"/><polygon points="469.5,138.5 472.8,140.4 472.8,168.6 469.5,166.6" fill="#DFE1E5"/>
<polygon points="476.1,138.5 472.8,140.4 472.8,168.6 476.1,166.6" fill="#CCD0D8"/>
<polygon points="472.8,136.6 476.1,138.5 472.8,140.4 469.5,138.5" fill="#F87171"/><line x1="482" y1="150" x2="482" y2="174" stroke="#4ADE80" stroke-width="1" opacity="0.7"/><polygon points="478.3,156.4 481.7,158.3 481.7,173.7 478.3,171.8" fill="#DFE1E5"/>
<polygon points="485.0,156.4 481.7,158.3 481.7,173.7 485.0,171.8" fill="#CCD0D8"/>
<polygon points="481.7,154.5 485.0,156.4 481.7,158.3 478.3,156.4" fill="#4ADE80"/><line x1="491" y1="132" x2="491" y2="179" stroke="#4ADE80" stroke-width="1" opacity="0.7"/><polygon points="487.2,138.5 490.5,140.4 490.5,178.8 487.2,176.9" fill="#DFE1E5"/>
<polygon points="493.9,138.5 490.5,140.4 490.5,178.8 493.9,176.9" fill="#CCD0D8"/>
<polygon points="490.5,136.6 493.9,138.5 490.5,140.4 487.2,138.5" fill="#4ADE80"/><line x1="499" y1="153" x2="499" y2="185" stroke="#F87171" stroke-width="1" opacity="0.7"/><polygon points="496.1,159.0 499.4,160.9 499.4,183.9 496.1,182.0" fill="#DFE1E5"/>
<polygon points="502.7,159.0 499.4,160.9 499.4,183.9 502.7,182.0" fill="#CCD0D8"/>
<polygon points="499.4,157.0 502.7,159.0 499.4,160.9 496.1,159.0" fill="#F87171"/><polyline points="464,136 473,133 482,151 491,133 499,154" fill="none" stroke="#D89B0A" stroke-width="1.6" opacity="0.9"/><circle cx="491" cy="133" r="2.2" fill="#E3A315"><animate attributeName="r" values="2.2;3.4;2.2" dur="2s" repeatCount="indefinite"/></circle><line x1="480" y1="171" x2="480" y2="97" stroke="#D89B0A" stroke-width="1" opacity="0.4" stroke-dasharray="2 2"/><g transform="translate(480 95)">
      <rect x="-75" y="-15" width="150" height="30" rx="3" fill="#FFFFFF" stroke="#E3E7EE" stroke-width="1"/>
      <rect x="-75" y="-15" width="3" height="30" rx="1.5" fill="#D89B0A"/>
      <text x="-63" y="-2" font-family="'Malgun Gothic',sans-serif" font-size="10.5" font-weight="700" fill="#151A24">📈 Stockmind</text>
      <text x="-63" y="10" font-family="'Malgun Gothic',sans-serif" font-size="8.5" fill="#6B7488">개인 투자 두뇌</text>
    </g></g>
<ellipse cx="653" cy="308" rx="46" ry="14" fill="#B7BECB" opacity="0.12" filter="url(#blurS)"/>
<g><animateTransform attributeName="transform" type="translate" values="0 0;0 -6;0 0" dur="5.5s" begin="1.0s" repeatCount="indefinite"/><polygon points="582.0,270.6 652.9,311.6 652.9,327.0 582.0,286.0" fill="#C4CAD4"/>
<polygon points="723.9,270.6 652.9,311.6 652.9,327.0 723.9,286.0" fill="#B9C0CD"/>
<polygon points="652.9,229.7 723.9,270.6 652.9,311.6 582.0,270.6" fill="url(#tileT)"/>
<polyline points="582.0,270.6 652.9,311.6 723.9,270.6" fill="none" stroke="#E5E7EB" stroke-width="1" opacity="0.55"/><polygon points="652.9,234.3 715.0,270.1 652.9,306.0 590.9,270.1" fill="none" stroke="#0E8CA8" stroke-width="1" opacity="0.3"/><ellipse cx="652.9" cy="270.3" rx="31.4" ry="18.1" fill="url(#cyanGlow2)" opacity="0.45"/><polygon points="619.7,241.2 624.1,243.8 624.1,274.5 619.7,271.9" fill="#C8CBD2"/>
<polygon points="648.5,229.7 624.1,243.8 624.1,274.5 648.5,260.4" fill="#BEC3CB"/>
<polygon points="644.1,227.1 648.5,229.7 624.1,243.8 619.7,241.2" fill="#D5D7DC"/>
<polyline points="619.7,241.2 624.1,243.8 648.5,229.7" fill="none" stroke="#F0F1F2" stroke-width="1" opacity="0.55"/><polygon points="646.6,235.0 626.7,246.5 626.7,268.3 646.6,256.8" fill="#BBC9D6"/><g transform="matrix(-1.1085,0.6400,0,1.2800,645.7,239.6)">
      <circle cx="9" cy="8" r="5" fill="#FFC831" opacity="0.9"><animate attributeName="opacity" values="0.6;1;0.6" dur="3s" repeatCount="indefinite"/></circle>
      <circle cx="7.6" cy="7" r="1" fill="#0A0A0A"/><circle cx="10.4" cy="7" r="1" fill="#0A0A0A"/>
      <rect x="1" y="15" width="16" height="1.6" fill="#0E8CA8" opacity="0.6"/>
    </g><polygon points="639.6,279.6 655.1,288.6 655.1,292.4 639.6,283.4" fill="#C6C9CF"/>
<polygon points="666.2,282.2 655.1,288.6 655.1,292.4 666.2,286.0" fill="#BEC2CB"/>
<polygon points="650.7,273.2 666.2,282.2 655.1,288.6 639.6,279.6" fill="#D0D3D8"/><polygon points="650.7,272.9 666.2,281.9 655.1,288.3 639.6,279.3" fill="#C3C7CF"/><polygon points="650.7,272.8 652.6,273.9 641.5,280.3 639.6,279.2" fill="#E6EDF3"/><polygon points="654.5,275.0 656.4,276.1 645.3,282.5 643.4,281.4" fill="#D0D3D8"/><polygon points="658.2,277.2 660.1,278.3 649.0,284.7 647.2,283.6" fill="#E6EDF3"/><polygon points="662.0,279.3 663.9,280.4 652.8,286.8 650.9,285.7" fill="#D0D3D8"/><circle cx="673" cy="269" r="7" fill="#B9C3D1" stroke="#0E8CA8" stroke-width="1.2"/><circle cx="677" cy="270" r="1.1" fill="#0E8CA8"/><circle cx="674" cy="272" r="1.1" fill="#0E8CA8"/><circle cx="670" cy="271" r="1.1" fill="#0E8CA8"/><circle cx="669" cy="269" r="1.1" fill="#0E8CA8"/><circle cx="672" cy="267" r="1.1" fill="#0E8CA8"/><circle cx="676" cy="268" r="1.1" fill="#0E8CA8"/><line x1="653" y1="271" x2="653" y2="196" stroke="#0E8CA8" stroke-width="1" opacity="0.4" stroke-dasharray="2 2"/><g transform="translate(653 194)">
      <rect x="-75" y="-15" width="150" height="30" rx="3" fill="#FFFFFF" stroke="#E3E7EE" stroke-width="1"/>
      <rect x="-75" y="-15" width="3" height="30" rx="1.5" fill="#0E8CA8"/>
      <text x="-63" y="-2" font-family="'Malgun Gothic',sans-serif" font-size="10.5" font-weight="700" fill="#151A24">🎬 toko-creator</text>
      <text x="-63" y="10" font-family="'Malgun Gothic',sans-serif" font-size="8.5" fill="#6B7488">AI 숏폼 자동 생성</text>
    </g></g>
<ellipse cx="307" cy="308" rx="46" ry="14" fill="#B7BECB" opacity="0.12" filter="url(#blurS)"/>
<g><animateTransform attributeName="transform" type="translate" values="0 0;0 -6;0 0" dur="5.5s" begin="0.6s" repeatCount="indefinite"/><polygon points="236.1,270.6 307.1,311.6 307.1,327.0 236.1,286.0" fill="#C4CAD4"/>
<polygon points="378.0,270.6 307.1,311.6 307.1,327.0 378.0,286.0" fill="#B9C0CD"/>
<polygon points="307.1,229.7 378.0,270.6 307.1,311.6 236.1,270.6" fill="url(#tileT)"/>
<polyline points="236.1,270.6 307.1,311.6 378.0,270.6" fill="none" stroke="#E5E7EB" stroke-width="1" opacity="0.55"/><polygon points="307.1,234.3 369.1,270.1 307.1,306.0 245.0,270.1" fill="none" stroke="#22A366" stroke-width="1" opacity="0.3"/><ellipse cx="307.1" cy="270.3" rx="31.4" ry="18.1" fill="url(#greenGlow)" opacity="0.4"/><polygon points="290.4,251.6 339.2,279.7 323.7,288.7 274.9,260.5" fill="#12161F"/><polygon points="287.8,258.0 293.3,261.2 291.8,262.1 286.2,258.9" fill="#E3A315" opacity="0.7"/><polygon points="298.9,264.4 304.4,267.6 302.9,268.5 297.3,265.3" fill="#E3A315" opacity="0.7"/><polygon points="310.0,270.8 315.5,274.0 313.9,274.9 308.4,271.7" fill="#E3A315" opacity="0.7"/><polygon points="321.0,277.2 326.6,280.4 325.0,281.3 319.5,278.1" fill="#E3A315" opacity="0.7"/><ellipse cx="307.1" cy="270.0" rx="18.8" ry="10.9" fill="#B7BECB" opacity="0.14" filter="url(#blurS)"/><polygon points="286.0,257.2 314.8,273.8 314.8,281.5 286.0,264.9" fill="#245A42"/>
<polygon points="328.1,266.2 314.8,273.8 314.8,281.5 328.1,273.8" fill="#173E2C"/>
<polygon points="299.3,249.5 328.1,266.2 314.8,273.8 286.0,257.2" fill="#2E6E52"/>
<polyline points="286.0,257.2 314.8,273.8 328.1,266.2" fill="none" stroke="#4ADE80" stroke-width="1" opacity="0.55"/><polygon points="294.9,254.6 308.2,262.3 308.2,268.7 294.9,261.0" fill="#2E6E52"/>
<polygon points="319.3,255.9 308.2,262.3 308.2,268.7 319.3,262.3" fill="#D9E5E0"/>
<polygon points="306.0,248.2 319.3,255.9 308.2,262.3 294.9,254.6" fill="#3A8A66"/><polygon points="296.0,255.8 307.1,262.2 307.1,266.8 296.0,260.4" fill="#0C1A14"/><ellipse cx="323" cy="274" rx="12" ry="6" fill="#FFF3C4" opacity="0.6" filter="url(#blurS)"><animate attributeName="opacity" values="0.4;0.7;0.4" dur="2.5s" repeatCount="indefinite"/></ellipse><ellipse cx="292" cy="267" rx="2.4" ry="1.5" fill="#0A0A0A"/><ellipse cx="309" cy="277" rx="2.4" ry="1.5" fill="#0A0A0A"/><line x1="307" y1="271" x2="307" y2="196" stroke="#22A366" stroke-width="1" opacity="0.4" stroke-dasharray="2 2"/><g transform="translate(307 194)">
      <rect x="-75" y="-15" width="150" height="30" rx="3" fill="#FFFFFF" stroke="#E3E7EE" stroke-width="1"/>
      <rect x="-75" y="-15" width="3" height="30" rx="1.5" fill="#22A366"/>
      <text x="-63" y="-2" font-family="'Malgun Gothic',sans-serif" font-size="10.5" font-weight="700" fill="#151A24">🚗 dn8-assistant</text>
      <text x="-63" y="10" font-family="'Malgun Gothic',sans-serif" font-size="8.5" fill="#6B7488">차량 AI 비서</text>
    </g></g>
<ellipse cx="480" cy="408" rx="46" ry="14" fill="#B7BECB" opacity="0.12" filter="url(#blurS)"/>
<g><animateTransform attributeName="transform" type="translate" values="0 0;0 -6;0 0" dur="5.5s" begin="1.6s" repeatCount="indefinite"/><polygon points="409.1,370.5 480.0,411.4 480.0,426.8 409.1,385.8" fill="#C4CAD4"/>
<polygon points="550.9,370.5 480.0,411.4 480.0,426.8 550.9,385.8" fill="#B9C0CD"/>
<polygon points="480.0,329.5 550.9,370.5 480.0,411.4 409.1,370.5" fill="url(#tileT)"/>
<polyline points="409.1,370.5 480.0,411.4 550.9,370.5" fill="none" stroke="#E5E7EB" stroke-width="1" opacity="0.55"/><polygon points="480.0,334.1 542.1,370.0 480.0,405.8 417.9,370.0" fill="none" stroke="#7C5CDB" stroke-width="1" opacity="0.3"/><ellipse cx="480.0" cy="370.1" rx="31.4" ry="18.1" fill="url(#violetGlow)" opacity="0.42"/><polygon points="480.0,341.8 528.8,370.0 480.0,398.1 431.2,370.0" fill="#C5CBD5"/><polyline points="496.2,350.9 447.4,379.1" fill="none" stroke="#7C5CDB" stroke-width="0.6" opacity="0.3"/><polyline points="463.8,350.9 512.6,379.1" fill="none" stroke="#7C5CDB" stroke-width="0.6" opacity="0.3"/><polyline points="512.4,360.2 463.6,388.4" fill="none" stroke="#7C5CDB" stroke-width="0.6" opacity="0.3"/><polyline points="447.6,360.2 496.4,388.4" fill="none" stroke="#7C5CDB" stroke-width="0.6" opacity="0.3"/><polygon points="468.9,328.2 477.8,333.4 477.8,359.0 468.9,353.8" fill="#CED3DB"/>
<polygon points="486.7,328.2 477.8,333.4 477.8,359.0 486.7,353.8" fill="#C0C7D4"/>
<polygon points="477.8,323.1 486.7,328.2 477.8,333.4 468.9,328.2" fill="#DBDFE5"/>
<polyline points="468.9,328.2 477.8,333.4 486.7,328.2" fill="none" stroke="#7C5CDB" stroke-width="1" opacity="0.55"/><polygon points="470.6,340.2 473.9,342.1 473.9,345.2 470.6,343.3" fill="#E3A315" opacity="0.83"/><polygon points="484.4,321.8 493.3,327.0 493.3,365.4 484.4,360.2" fill="#CED3DB"/>
<polygon points="502.2,321.8 493.3,327.0 493.3,365.4 502.2,360.2" fill="#C0C7D4"/>
<polygon points="493.3,316.7 502.2,321.8 493.3,327.0 484.4,321.8" fill="#DBDFE5"/>
<polyline points="484.4,321.8 493.3,327.0 502.2,321.8" fill="none" stroke="#7C5CDB" stroke-width="1" opacity="0.55"/><polygon points="486.1,346.6 489.4,348.5 489.4,351.6 486.1,349.7" fill="#E3A315" opacity="0.45"/><polygon points="486.1,338.9 489.4,340.8 489.4,343.9 486.1,342.0" fill="#E3A315" opacity="0.77"/><polygon points="486.1,331.2 489.4,333.2 489.4,336.2 486.1,334.3" fill="#E3A315" opacity="0.69"/><polygon points="491.1,351.3 500.0,356.4 500.0,376.9 491.1,371.8" fill="#CED3DB"/>
<polygon points="508.8,351.3 500.0,356.4 500.0,376.9 508.8,371.8" fill="#C0C7D4"/>
<polygon points="500.0,346.2 508.8,351.3 500.0,356.4 491.1,351.3" fill="#DBDFE5"/>
<polyline points="491.1,351.3 500.0,356.4 508.8,351.3" fill="none" stroke="#7C5CDB" stroke-width="1" opacity="0.55"/><polygon points="451.2,348.7 460.0,353.8 460.0,371.8 451.2,366.6" fill="#CED3DB"/>
<polygon points="468.9,348.7 460.0,353.8 460.0,371.8 468.9,366.6" fill="#C0C7D4"/>
<polygon points="460.0,343.6 468.9,348.7 460.0,353.8 451.2,348.7" fill="#DBDFE5"/>
<polyline points="451.2,348.7 460.0,353.8 468.9,348.7" fill="none" stroke="#7C5CDB" stroke-width="1" opacity="0.55"/><polygon points="466.7,347.4 475.6,352.6 475.6,383.3 466.7,378.2" fill="#CED3DB"/>
<polygon points="484.4,347.4 475.6,352.6 475.6,383.3 484.4,378.2" fill="#C0C7D4"/>
<polygon points="475.6,342.3 484.4,347.4 475.6,352.6 466.7,347.4" fill="#DBDFE5"/>
<polyline points="466.7,347.4 475.6,352.6 484.4,347.4" fill="none" stroke="#7C5CDB" stroke-width="1" opacity="0.55"/><polygon points="468.4,364.5 471.7,366.4 471.7,369.5 468.4,367.6" fill="#7C5CDB" opacity="0.46"/><polygon points="477.8,364.1 486.7,369.2 486.7,392.2 477.8,387.1" fill="#CED3DB"/>
<polygon points="495.5,364.1 486.7,369.2 486.7,392.2 495.5,387.1" fill="#C0C7D4"/>
<polygon points="486.7,359.0 495.5,364.1 486.7,369.2 477.8,364.1" fill="#DBDFE5"/>
<polyline points="477.8,364.1 486.7,369.2 495.5,364.1" fill="none" stroke="#7C5CDB" stroke-width="1" opacity="0.55"/><polygon points="479.4,373.5 482.8,375.4 482.8,378.5 479.4,376.6" fill="#7C5CDB" opacity="0.55"/><circle cx="493" cy="319" r="1.8" fill="#E5484D"><animate attributeName="opacity" values="1;0.2;1" dur="1.6s" repeatCount="indefinite"/></circle><line x1="480" y1="370" x2="480" y2="296" stroke="#7C5CDB" stroke-width="1" opacity="0.4" stroke-dasharray="2 2"/><g transform="translate(480 294)">
      <rect x="-75" y="-15" width="150" height="30" rx="3" fill="#FFFFFF" stroke="#E3E7EE" stroke-width="1"/>
      <rect x="-75" y="-15" width="3" height="30" rx="1.5" fill="#7C5CDB"/>
      <text x="-63" y="-2" font-family="'Malgun Gothic',sans-serif" font-size="10.5" font-weight="700" fill="#151A24">🏙 Changwon Twin</text>
      <text x="-63" y="10" font-family="'Malgun Gothic',sans-serif" font-size="8.5" fill="#6B7488">도시 디지털 트윈</text>
    </g></g>
</svg>