<svg viewBox="0 0 960 566" xmlns="http://www.w3.org/2000/svg" xmlns:xlink="http://www.w3.org/1999/xlink" role="img" aria-label="프로젝트 미니 디오라마 — 대표작 4종">
<defs>
  <linearGradient id="tileT" x1="0" y1="0" x2="1" y2="1">
    <stop offset="0%" stop-color="#20293D"/><stop offset="60%" stop-color="#161F30"/><stop offset="100%" stop-color="#111827"/>
  </linearGradient>
  <radialGradient id="cyanGlow" cx="50%" cy="50%" r="50%"><stop offset="0%" stop-color="#22D3EE" stop-opacity="0.5"/><stop offset="100%" stop-color="#22D3EE" stop-opacity="0"/></radialGradient>
  <radialGradient id="cyanGlow2" cx="50%" cy="50%" r="50%"><stop offset="0%" stop-color="#22D3EE" stop-opacity="0.45"/><stop offset="100%" stop-color="#22D3EE" stop-opacity="0"/></radialGradient>
  <radialGradient id="goldGlow" cx="50%" cy="50%" r="50%"><stop offset="0%" stop-color="#FFC831" stop-opacity="0.5"/><stop offset="100%" stop-color="#FFC831" stop-opacity="0"/></radialGradient>
  <radialGradient id="greenGlow" cx="50%" cy="50%" r="50%"><stop offset="0%" stop-color="#4ADE80" stop-opacity="0.45"/><stop offset="100%" stop-color="#4ADE80" stop-opacity="0"/></radialGradient>
  <radialGradient id="violetGlow" cx="50%" cy="50%" r="50%"><stop offset="0%" stop-color="#A78BFA" stop-opacity="0.45"/><stop offset="100%" stop-color="#A78BFA" stop-opacity="0"/></radialGradient>
  <radialGradient id="vig" cx="50%" cy="46%" r="72%"><stop offset="0%" stop-color="#000000" stop-opacity="0"/><stop offset="80%" stop-color="#000000" stop-opacity="0"/><stop offset="100%" stop-color="#000000" stop-opacity="0.5"/></radialGradient>
  <filter id="blurS" x="-60%" y="-60%" width="220%" height="220%"><feGaussianBlur stdDeviation="2.2"/></filter>
</defs>
<rect width="960" height="566" fill="#000000"/>
<text x="480" y="40" text-anchor="middle" font-family="Consolas,monospace" font-size="14" font-weight="700" letter-spacing="5" fill="#FFC831">SHIPPING NOW</text>
<text x="480" y="60" text-anchor="middle" font-family="'Malgun Gothic',sans-serif" font-size="11.5" fill="#7D8590">지금 만들고 있는 것들 — 각각 하나의 작은 세계</text>
<g><circle cx="549" cy="224" r="1.3" fill="#67E8F9" opacity="0.34"><animate attributeName="opacity" values="0.34;0.05;0.34" dur="5.2s" begin="2.8s" repeatCount="indefinite"/></circle><circle cx="692" cy="154" r="0.7" fill="#FFFFFF" opacity="0.32"><animate attributeName="opacity" values="0.32;0.05;0.32" dur="5.4s" begin="1.7s" repeatCount="indefinite"/></circle><circle cx="895" cy="268" r="1.3" fill="#FFFFFF" opacity="0.27"><animate attributeName="opacity" values="0.27;0.05;0.27" dur="4.4s" begin="0.6s" repeatCount="indefinite"/></circle><circle cx="825" cy="460" r="0.8" fill="#FFD86B" opacity="0.37"><animate attributeName="opacity" values="0.37;0.05;0.37" dur="2.9s" begin="2.9s" repeatCount="indefinite"/></circle><circle cx="85" cy="170" r="1.0" fill="#FFFFFF" opacity="0.52"><animate attributeName="opacity" values="0.52;0.05;0.52" dur="4.6s" begin="2.7s" repeatCount="indefinite"/></circle><circle cx="433" cy="428" r="1.1" fill="#67E8F9" opacity="0.21"><animate attributeName="opacity" values="0.21;0.05;0.21" dur="3.8s" begin="0.2s" repeatCount="indefinite"/></circle><circle cx="785" cy="390" r="0.9" fill="#FFFFFF" opacity="0.39"><animate attributeName="opacity" values="0.39;0.05;0.39" dur="5.2s" begin="3.5s" repeatCount="indefinite"/></circle><circle cx="259" cy="71" r="1.1" fill="#FFD86B" opacity="0.46"><animate attributeName="opacity" values="0.46;0.05;0.46" dur="3.8s" begin="1.1s" repeatCount="indefinite"/></circle><circle cx="820" cy="153" r="0.8" fill="#FFD86B" opacity="0.33"><animate attributeName="opacity" values="0.33;0.05;0.33" dur="3.6s" begin="1.4s" repeatCount="indefinite"/></circle><circle cx="189" cy="182" r="0.7" fill="#67E8F9" opacity="0.37"><animate attributeName="opacity" values="0.37;0.05;0.37" dur="2.7s" begin="4.0s" repeatCount="indefinite"/></circle><circle cx="34" cy="251" r="1.3" fill="#FFFFFF" opacity="0.52"><animate attributeName="opacity" values="0.52;0.05;0.52" dur="5.1s" begin="1.2s" repeatCount="indefinite"/></circle><circle cx="91" cy="395" r="1.5" fill="#FFFFFF" opacity="0.21"><animate attributeName="opacity" values="0.21;0.05;0.21" dur="4.5s" begin="2.7s" repeatCount="indefinite"/></circle><circle cx="427" cy="260" r="1.3" fill="#FFFFFF" opacity="0.29"><animate attributeName="opacity" values="0.29;0.05;0.29" dur="6.0s" begin="3.8s" repeatCount="indefinite"/></circle><circle cx="707" cy="68" r="1.4" fill="#FFFFFF" opacity="0.62"><animate attributeName="opacity" values="0.62;0.05;0.62" dur="4.4s" begin="3.2s" repeatCount="indefinite"/></circle><circle cx="338" cy="427" r="0.9" fill="#FFD86B" opacity="0.66"><animate attributeName="opacity" values="0.66;0.05;0.66" dur="2.8s" begin="3.1s" repeatCount="indefinite"/></circle><circle cx="874" cy="140" r="1.2" fill="#FFFFFF" opacity="0.44"><animate attributeName="opacity" values="0.44;0.05;0.44" dur="4.4s" begin="2.2s" repeatCount="indefinite"/></circle><circle cx="262" cy="127" r="1.1" fill="#67E8F9" opacity="0.49"><animate attributeName="opacity" values="0.49;0.05;0.49" dur="5.3s" begin="0.2s" repeatCount="indefinite"/></circle><circle cx="924" cy="261" r="1.1" fill="#FFFFFF" opacity="0.31"><animate attributeName="opacity" values="0.31;0.05;0.31" dur="3.9s" begin="2.5s" repeatCount="indefinite"/></circle><circle cx="94" cy="247" r="1.3" fill="#FFD86B" opacity="0.44"><animate attributeName="opacity" values="0.44;0.05;0.44" dur="5.4s" begin="3.9s" repeatCount="indefinite"/></circle><circle cx="627" cy="26" r="1.5" fill="#FFFFFF" opacity="0.23"><animate attributeName="opacity" values="0.23;0.05;0.23" dur="5.4s" begin="3.9s" repeatCount="indefinite"/></circle><circle cx="188" cy="296" r="0.8" fill="#67E8F9" opacity="0.38"><animate attributeName="opacity" values="0.38;0.05;0.38" dur="6.0s" begin="3.0s" repeatCount="indefinite"/></circle><circle cx="325" cy="234" r="0.9" fill="#FFFFFF" opacity="0.46"><animate attributeName="opacity" values="0.46;0.05;0.46" dur="4.3s" begin="0.8s" repeatCount="indefinite"/></circle><circle cx="604" cy="372" r="1.1" fill="#FFD86B" opacity="0.42"><animate attributeName="opacity" values="0.42;0.05;0.42" dur="4.1s" begin="2.0s" repeatCount="indefinite"/></circle><circle cx="564" cy="293" r="1.0" fill="#FFFFFF" opacity="0.35"><animate attributeName="opacity" values="0.35;0.05;0.35" dur="3.1s" begin="0.0s" repeatCount="indefinite"/></circle><circle cx="938" cy="251" r="0.9" fill="#67E8F9" opacity="0.31"><animate attributeName="opacity" values="0.31;0.05;0.31" dur="3.4s" begin="2.1s" repeatCount="indefinite"/></circle><circle cx="731" cy="19" r="0.6" fill="#FFFFFF" opacity="0.56"><animate attributeName="opacity" values="0.56;0.05;0.56" dur="3.6s" begin="0.8s" repeatCount="indefinite"/></circle></g>
<ellipse cx="480" cy="263" rx="52" ry="20" fill="url(#cyanGlow)" opacity="0.28"/>
<g><animateTransform attributeName="transform" type="translate" values="0 0;0 -6;0 0" dur="5.5s" begin="0.0s" repeatCount="indefinite"/><polygon points="409.1,186.2 480.0,227.1 480.0,245.0" fill="#0D1320"/><polygon points="480.0,227.1 550.9,186.2 480.0,245.0" fill="#080C14"/><polygon points="409.1,170.8 480.0,211.8 480.0,227.1 409.1,186.2" fill="#141B28"/>
<polygon points="550.9,170.8 480.0,211.8 480.0,227.1 550.9,186.2" fill="#0C111A"/>
<polygon points="480.0,129.8 550.9,170.8 480.0,211.8 409.1,170.8" fill="url(#tileT)"/>
<polyline points="409.1,170.8 480.0,211.8 550.9,170.8" fill="none" stroke="#2E3A50" stroke-width="1" opacity="0.55"/><polygon points="480.0,134.4 542.1,170.3 480.0,206.1 417.9,170.3" fill="none" stroke="#FFC831" stroke-width="1" opacity="0.22"/><ellipse cx="480.0" cy="170.4" rx="31.4" ry="18.1" fill="url(#goldGlow)" opacity="0.5"/><line x1="464" y1="135" x2="464" y2="164" stroke="#4ADE80" stroke-width="1" opacity="0.7"/><polygon points="460.6,141.0 463.9,143.0 463.9,163.4 460.6,161.5" fill="#2A3346"/>
<polygon points="467.3,141.0 463.9,143.0 463.9,163.4 467.3,161.5" fill="#1A2130"/>
<polygon points="463.9,139.1 467.3,141.0 463.9,143.0 460.6,141.0" fill="#4ADE80"/><line x1="473" y1="132" x2="473" y2="169" stroke="#F87171" stroke-width="1" opacity="0.7"/><polygon points="469.5,138.5 472.8,140.4 472.8,168.6 469.5,166.6" fill="#2A3346"/>
<polygon points="476.1,138.5 472.8,140.4 472.8,168.6 476.1,166.6" fill="#1A2130"/>
<polygon points="472.8,136.6 476.1,138.5 472.8,140.4 469.5,138.5" fill="#F87171"/><line x1="482" y1="150" x2="482" y2="174" stroke="#4ADE80" stroke-width="1" opacity="0.7"/><polygon points="478.3,156.4 481.7,158.3 481.7,173.7 478.3,171.8" fill="#2A3346"/>
<polygon points="485.0,156.4 481.7,158.3 481.7,173.7 485.0,171.8" fill="#1A2130"/>
<polygon points="481.7,154.5 485.0,156.4 481.7,158.3 478.3,156.4" fill="#4ADE80"/><line x1="491" y1="132" x2="491" y2="179" stroke="#4ADE80" stroke-width="1" opacity="0.7"/><polygon points="487.2,138.5 490.5,140.4 490.5,178.8 487.2,176.9" fill="#2A3346"/>
<polygon points="493.9,138.5 490.5,140.4 490.5,178.8 493.9,176.9" fill="#1A2130"/>
<polygon points="490.5,136.6 493.9,138.5 490.5,140.4 487.2,138.5" fill="#4ADE80"/><line x1="499" y1="153" x2="499" y2="185" stroke="#F87171" stroke-width="1" opacity="0.7"/><polygon points="496.1,159.0 499.4,160.9 499.4,183.9 496.1,182.0" fill="#2A3346"/>
<polygon points="502.7,159.0 499.4,160.9 499.4,183.9 502.7,182.0" fill="#1A2130"/>
<polygon points="499.4,157.0 502.7,159.0 499.4,160.9 496.1,159.0" fill="#F87171"/><polyline points="464,136 473,133 482,151 491,133 499,154" fill="none" stroke="#FFC831" stroke-width="1.6" opacity="0.9"/><circle cx="491" cy="133" r="2.2" fill="#FFE9A8"><animate attributeName="r" values="2.2;3.4;2.2" dur="2s" repeatCount="indefinite"/></circle><line x1="480" y1="171" x2="480" y2="97" stroke="#FFC831" stroke-width="1" opacity="0.35" stroke-dasharray="2 2"/><g transform="translate(480 95)">
      <rect x="-75" y="-15" width="150" height="30" rx="3" fill="#0A0F17" opacity="0.92" stroke="#243144" stroke-width="1"/>
      <rect x="-75" y="-15" width="3" height="30" rx="1.5" fill="#FFC831"/>
      <text x="-63" y="-2" font-family="'Malgun Gothic',sans-serif" font-size="10.5" font-weight="700" fill="#E6EDF3">📈 Stockmind</text>
      <text x="-63" y="10" font-family="'Malgun Gothic',sans-serif" font-size="8.5" fill="#7D8590">개인 투자 두뇌</text>
    </g></g>
<ellipse cx="653" cy="363" rx="52" ry="20" fill="url(#cyanGlow)" opacity="0.28"/>
<g><animateTransform attributeName="transform" type="translate" values="0 0;0 -6;0 0" dur="5.5s" begin="1.0s" repeatCount="indefinite"/><polygon points="582.0,286.0 652.9,327.0 652.9,344.9" fill="#0D1320"/><polygon points="652.9,327.0 723.9,286.0 652.9,344.9" fill="#080C14"/><polygon points="582.0,270.6 652.9,311.6 652.9,327.0 582.0,286.0" fill="#141B28"/>
<polygon points="723.9,270.6 652.9,311.6 652.9,327.0 723.9,286.0" fill="#0C111A"/>
<polygon points="652.9,229.7 723.9,270.6 652.9,311.6 582.0,270.6" fill="url(#tileT)"/>
<polyline points="582.0,270.6 652.9,311.6 723.9,270.6" fill="none" stroke="#2E3A50" stroke-width="1" opacity="0.55"/><polygon points="652.9,234.3 715.0,270.1 652.9,306.0 590.9,270.1" fill="none" stroke="#22D3EE" stroke-width="1" opacity="0.22"/><ellipse cx="652.9" cy="270.3" rx="31.4" ry="18.1" fill="url(#cyanGlow2)" opacity="0.45"/><polygon points="619.7,241.2 624.1,243.8 624.1,274.5 619.7,271.9" fill="#181D26"/>
<polygon points="648.5,229.7 624.1,243.8 624.1,274.5 648.5,260.4" fill="#10141B"/>
<polygon points="644.1,227.1 648.5,229.7 624.1,243.8 619.7,241.2" fill="#242A35"/>
<polyline points="619.7,241.2 624.1,243.8 648.5,229.7" fill="none" stroke="#3D4757" stroke-width="1" opacity="0.55"/><polygon points="646.6,235.0 626.7,246.5 626.7,268.3 646.6,256.8" fill="#0C1A28"/><g transform="matrix(-1.1085,0.6400,0,1.2800,645.7,239.6)">
      <circle cx="9" cy="8" r="5" fill="#FFC831" opacity="0.9"><animate attributeName="opacity" values="0.6;1;0.6" dur="3s" repeatCount="indefinite"/></circle>
      <circle cx="7.6" cy="7" r="1" fill="#0A0A0A"/><circle cx="10.4" cy="7" r="1" fill="#0A0A0A"/>
      <rect x="1" y="15" width="16" height="1.6" fill="#22D3EE" opacity="0.6"/>
    </g><polygon points="639.6,279.6 655.1,288.6 655.1,292.4 639.6,283.4" fill="#171B22"/>
<polygon points="666.2,282.2 655.1,288.6 655.1,292.4 666.2,286.0" fill="#10131A"/>
<polygon points="650.7,273.2 666.2,282.2 655.1,288.6 639.6,279.6" fill="#20262F"/><polygon points="650.7,272.9 666.2,281.9 655.1,288.3 639.6,279.3" fill="#141821"/><polygon points="650.7,272.8 652.6,273.9 641.5,280.3 639.6,279.2" fill="#E6EDF3"/><polygon points="654.5,275.0 656.4,276.1 645.3,282.5 643.4,281.4" fill="#20262F"/><polygon points="658.2,277.2 660.1,278.3 649.0,284.7 647.2,283.6" fill="#E6EDF3"/><polygon points="662.0,279.3 663.9,280.4 652.8,286.8 650.9,285.7" fill="#20262F"/><circle cx="673" cy="269" r="7" fill="#0C1420" stroke="#22D3EE" stroke-width="1.2"/><circle cx="677" cy="270" r="1.1" fill="#22D3EE"/><circle cx="674" cy="272" r="1.1" fill="#22D3EE"/><circle cx="670" cy="271" r="1.1" fill="#22D3EE"/><circle cx="669" cy="269" r="1.1" fill="#22D3EE"/><circle cx="672" cy="267" r="1.1" fill="#22D3EE"/><circle cx="676" cy="268" r="1.1" fill="#22D3EE"/><line x1="653" y1="271" x2="653" y2="196" stroke="#22D3EE" stroke-width="1" opacity="0.35" stroke-dasharray="2 2"/><g transform="translate(653 194)">
      <rect x="-75" y="-15" width="150" height="30" rx="3" fill="#0A0F17" opacity="0.92" stroke="#243144" stroke-width="1"/>
      <rect x="-75" y="-15" width="3" height="30" rx="1.5" fill="#22D3EE"/>
      <text x="-63" y="-2" font-family="'Malgun Gothic',sans-serif" font-size="10.5" font-weight="700" fill="#E6EDF3">🎬 toko-creator</text>
      <text x="-63" y="10" font-family="'Malgun Gothic',sans-serif" font-size="8.5" fill="#7D8590">AI 숏폼 자동 생성</text>
    </g></g>
<ellipse cx="307" cy="363" rx="52" ry="20" fill="url(#cyanGlow)" opacity="0.28"/>
<g><animateTransform attributeName="transform" type="translate" values="0 0;0 -6;0 0" dur="5.5s" begin="0.6s" repeatCount="indefinite"/><polygon points="236.1,286.0 307.1,327.0 307.1,344.9" fill="#0D1320"/><polygon points="307.1,327.0 378.0,286.0 307.1,344.9" fill="#080C14"/><polygon points="236.1,270.6 307.1,311.6 307.1,327.0 236.1,286.0" fill="#141B28"/>
<polygon points="378.0,270.6 307.1,311.6 307.1,327.0 378.0,286.0" fill="#0C111A"/>
<polygon points="307.1,229.7 378.0,270.6 307.1,311.6 236.1,270.6" fill="url(#tileT)"/>
<polyline points="236.1,270.6 307.1,311.6 378.0,270.6" fill="none" stroke="#2E3A50" stroke-width="1" opacity="0.55"/><polygon points="307.1,234.3 369.1,270.1 307.1,306.0 245.0,270.1" fill="none" stroke="#4ADE80" stroke-width="1" opacity="0.22"/><ellipse cx="307.1" cy="270.3" rx="31.4" ry="18.1" fill="url(#greenGlow)" opacity="0.4"/><polygon points="290.4,251.6 339.2,279.7 323.7,288.7 274.9,260.5" fill="#12161F"/><polygon points="287.8,258.0 293.3,261.2 291.8,262.1 286.2,258.9" fill="#3A4658" opacity="0.7"/><polygon points="298.9,264.4 304.4,267.6 302.9,268.5 297.3,265.3" fill="#3A4658" opacity="0.7"/><polygon points="310.0,270.8 315.5,274.0 313.9,274.9 308.4,271.7" fill="#3A4658" opacity="0.7"/><polygon points="321.0,277.2 326.6,280.4 325.0,281.3 319.5,278.1" fill="#3A4658" opacity="0.7"/><ellipse cx="307.1" cy="270.0" rx="18.8" ry="10.9" fill="#000000" opacity="0.3" filter="url(#blurS)"/><polygon points="286.0,257.2 314.8,273.8 314.8,281.5 286.0,264.9" fill="#245A42"/>
<polygon points="328.1,266.2 314.8,273.8 314.8,281.5 328.1,273.8" fill="#173E2C"/>
<polygon points="299.3,249.5 328.1,266.2 314.8,273.8 286.0,257.2" fill="#2E6E52"/>
<polyline points="286.0,257.2 314.8,273.8 328.1,266.2" fill="none" stroke="#4ADE80" stroke-width="1" opacity="0.55"/><polygon points="294.9,254.6 308.2,262.3 308.2,268.7 294.9,261.0" fill="#2E6E52"/>
<polygon points="319.3,255.9 308.2,262.3 308.2,268.7 319.3,262.3" fill="#1F4A36"/>
<polygon points="306.0,248.2 319.3,255.9 308.2,262.3 294.9,254.6" fill="#3A8A66"/><polygon points="296.0,255.8 307.1,262.2 307.1,266.8 296.0,260.4" fill="#0C1A14"/><ellipse cx="323" cy="274" rx="12" ry="6" fill="#FFF3C4" opacity="0.45" filter="url(#blurS)"><animate attributeName="opacity" values="0.3;0.55;0.3" dur="2.5s" repeatCount="indefinite"/></ellipse><ellipse cx="292" cy="267" rx="2.4" ry="1.5" fill="#0A0A0A"/><ellipse cx="309" cy="277" rx="2.4" ry="1.5" fill="#0A0A0A"/><line x1="307" y1="271" x2="307" y2="196" stroke="#4ADE80" stroke-width="1" opacity="0.35" stroke-dasharray="2 2"/><g transform="translate(307 194)">
      <rect x="-75" y="-15" width="150" height="30" rx="3" fill="#0A0F17" opacity="0.92" stroke="#243144" stroke-width="1"/>
      <rect x="-75" y="-15" width="3" height="30" rx="1.5" fill="#4ADE80"/>
      <text x="-63" y="-2" font-family="'Malgun Gothic',sans-serif" font-size="10.5" font-weight="700" fill="#E6EDF3">🚗 dn8-assistant</text>
      <text x="-63" y="10" font-family="'Malgun Gothic',sans-serif" font-size="8.5" fill="#7D8590">차량 AI 비서</text>
    </g></g>
<ellipse cx="480" cy="463" rx="52" ry="20" fill="url(#cyanGlow)" opacity="0.28"/>
<g><animateTransform attributeName="transform" type="translate" values="0 0;0 -6;0 0" dur="5.5s" begin="1.6s" repeatCount="indefinite"/><polygon points="409.1,385.8 480.0,426.8 480.0,444.7" fill="#0D1320"/><polygon points="480.0,426.8 550.9,385.8 480.0,444.7" fill="#080C14"/><polygon points="409.1,370.5 480.0,411.4 480.0,426.8 409.1,385.8" fill="#141B28"/>
<polygon points="550.9,370.5 480.0,411.4 480.0,426.8 550.9,385.8" fill="#0C111A"/>
<polygon points="480.0,329.5 550.9,370.5 480.0,411.4 409.1,370.5" fill="url(#tileT)"/>
<polyline points="409.1,370.5 480.0,411.4 550.9,370.5" fill="none" stroke="#2E3A50" stroke-width="1" opacity="0.55"/><polygon points="480.0,334.1 542.1,370.0 480.0,405.8 417.9,370.0" fill="none" stroke="#A78BFA" stroke-width="1" opacity="0.22"/><ellipse cx="480.0" cy="370.1" rx="31.4" ry="18.1" fill="url(#violetGlow)" opacity="0.42"/><polygon points="480.0,341.8 528.8,370.0 480.0,398.1 431.2,370.0" fill="#141C2A"/><polyline points="496.2,350.9 447.4,379.1" fill="none" stroke="#A78BFA" stroke-width="0.6" opacity="0.25"/><polyline points="463.8,350.9 512.6,379.1" fill="none" stroke="#A78BFA" stroke-width="0.6" opacity="0.25"/><polyline points="512.4,360.2 463.6,388.4" fill="none" stroke="#A78BFA" stroke-width="0.6" opacity="0.25"/><polyline points="447.6,360.2 496.4,388.4" fill="none" stroke="#A78BFA" stroke-width="0.6" opacity="0.25"/><polygon points="468.9,328.2 477.8,333.4 477.8,359.0 468.9,353.8" fill="#1A2436"/>
<polygon points="486.7,328.2 477.8,333.4 477.8,359.0 486.7,353.8" fill="#101827"/>
<polygon points="477.8,323.1 486.7,328.2 477.8,333.4 468.9,328.2" fill="#243247"/>
<polyline points="468.9,328.2 477.8,333.4 486.7,328.2" fill="none" stroke="#A78BFA" stroke-width="1" opacity="0.55"/><polygon points="484.4,321.8 493.3,327.0 493.3,365.4 484.4,360.2" fill="#1A2436"/>
<polygon points="502.2,321.8 493.3,327.0 493.3,365.4 502.2,360.2" fill="#101827"/>
<polygon points="493.3,316.7 502.2,321.8 493.3,327.0 484.4,321.8" fill="#243247"/>
<polyline points="484.4,321.8 493.3,327.0 502.2,321.8" fill="none" stroke="#A78BFA" stroke-width="1" opacity="0.55"/><polygon points="491.1,351.3 500.0,356.4 500.0,376.9 491.1,371.8" fill="#1A2436"/>
<polygon points="508.8,351.3 500.0,356.4 500.0,376.9 508.8,371.8" fill="#101827"/>
<polygon points="500.0,346.2 508.8,351.3 500.0,356.4 491.1,351.3" fill="#243247"/>
<polyline points="491.1,351.3 500.0,356.4 508.8,351.3" fill="none" stroke="#A78BFA" stroke-width="1" opacity="0.55"/><polygon points="492.7,358.1 496.1,360.0 496.1,363.1 492.7,361.2" fill="#A78BFA" opacity="0.79"/><polygon points="451.2,348.7 460.0,353.8 460.0,371.8 451.2,366.6" fill="#1A2436"/>
<polygon points="468.9,348.7 460.0,353.8 460.0,371.8 468.9,366.6" fill="#101827"/>
<polygon points="460.0,343.6 468.9,348.7 460.0,353.8 451.2,348.7" fill="#243247"/>
<polyline points="451.2,348.7 460.0,353.8 468.9,348.7" fill="none" stroke="#A78BFA" stroke-width="1" opacity="0.55"/><polygon points="452.8,353.0 456.2,354.9 456.2,358.0 452.8,356.1" fill="#FFD86B" opacity="0.76"/><polygon points="466.7,347.4 475.6,352.6 475.6,383.3 466.7,378.2" fill="#1A2436"/>
<polygon points="484.4,347.4 475.6,352.6 475.6,383.3 484.4,378.2" fill="#101827"/>
<polygon points="475.6,342.3 484.4,347.4 475.6,352.6 466.7,347.4" fill="#243247"/>
<polyline points="466.7,347.4 475.6,352.6 484.4,347.4" fill="none" stroke="#A78BFA" stroke-width="1" opacity="0.55"/><polygon points="468.4,364.5 471.7,366.4 471.7,369.5 468.4,367.6" fill="#A78BFA" opacity="0.73"/><polygon points="468.4,356.8 471.7,358.8 471.7,361.8 468.4,359.9" fill="#FFD86B" opacity="0.52"/><polygon points="477.8,364.1 486.7,369.2 486.7,392.2 477.8,387.1" fill="#1A2436"/>
<polygon points="495.5,364.1 486.7,369.2 486.7,392.2 495.5,387.1" fill="#101827"/>
<polygon points="486.7,359.0 495.5,364.1 486.7,369.2 477.8,364.1" fill="#243247"/>
<polyline points="477.8,364.1 486.7,369.2 495.5,364.1" fill="none" stroke="#A78BFA" stroke-width="1" opacity="0.55"/><polygon points="479.4,373.5 482.8,375.4 482.8,378.5 479.4,376.6" fill="#FFD86B" opacity="0.58"/><circle cx="493" cy="319" r="1.8" fill="#F87171"><animate attributeName="opacity" values="1;0.2;1" dur="1.6s" repeatCount="indefinite"/></circle><line x1="480" y1="370" x2="480" y2="296" stroke="#A78BFA" stroke-width="1" opacity="0.35" stroke-dasharray="2 2"/><g transform="translate(480 294)">
      <rect x="-75" y="-15" width="150" height="30" rx="3" fill="#0A0F17" opacity="0.92" stroke="#243144" stroke-width="1"/>
      <rect x="-75" y="-15" width="3" height="30" rx="1.5" fill="#A78BFA"/>
      <text x="-63" y="-2" font-family="'Malgun Gothic',sans-serif" font-size="10.5" font-weight="700" fill="#E6EDF3">🏙 Changwon Twin</text>
      <text x="-63" y="10" font-family="'Malgun Gothic',sans-serif" font-size="8.5" fill="#7D8590">도시 디지털 트윈</text>
    </g></g>
<rect width="960" height="566" fill="url(#vig)"/>
</svg>