<svg xmlns="http://www.w3.org/2000/svg" width="480" height="488">
  <defs>
    <linearGradient id="grad_weekly" x1="0%" y1="0%" x2="100%" y2="0%">
      <stop offset="0%" stop-color="#bd00ff"/><stop offset="100%" stop-color="#ff0080"/>
    </linearGradient>
    <linearGradient id="grad_cyan" x1="0%" y1="0%" x2="100%" y2="0%">
      <stop offset="0%" stop-color="#06b6d4"/><stop offset="100%" stop-color="#0ea5e9"/>
    </linearGradient>
    <filter id="glow2">
      <feGaussianBlur stdDeviation="2" result="blur"/>
      <feMerge><feMergeNode in="blur"/><feMergeNode in="SourceGraphic"/></feMerge>
    </filter>
  </defs>
  <rect width="480" height="488" fill="#0d1117" rx="12"/>
  <text x="240" y="28" text-anchor="middle" fill="#ffffff"
        font-family="'Segoe UI', 'Apple SD Gothic Neo', sans-serif" font-size="17" font-weight="bold"
        filter="url(#glow2)">이번 주 활동 리포트</text>
  <text x="240" y="48" text-anchor="middle" fill="#8b949e"
        font-family="'Segoe UI', 'Apple SD Gothic Neo', sans-serif" font-size="12">4/13 (월) — 4/19 (일)</text>
  <line x1="20" y1="58" x2="460" y2="58" stroke="#21262d" stroke-width="1"/>
  <text x="110" y="88" text-anchor="end" fill="#c9d1d9" font-family="'Segoe UI', 'Apple SD Gothic Neo', sans-serif" font-size="14">월</text>
  <rect x="120" y="72" width="250" height="22" fill="#161b22" rx="5"/>
  <rect x="120" y="72" width="218" height="22" fill="url(#grad_weekly)" rx="5"/>
  <text x="382" y="88" fill="#ffffff" font-family="'Segoe UI', 'Apple SD Gothic Neo', sans-serif" font-size="13" font-weight="bold">163</text>
  <text x="110" y="122" text-anchor="end" fill="#c9d1d9" font-family="'Segoe UI', 'Apple SD Gothic Neo', sans-serif" font-size="14">화</text>
  <rect x="120" y="106" width="250" height="22" fill="#161b22" rx="5"/>
  <rect x="120" y="106" width="120" height="22" fill="url(#grad_weekly)" rx="5"/>
  <text x="382" y="122" fill="#ffffff" font-family="'Segoe UI', 'Apple SD Gothic Neo', sans-serif" font-size="13" font-weight="bold">90</text>
  <text x="110" y="156" text-anchor="end" fill="#c9d1d9" font-family="'Segoe UI', 'Apple SD Gothic Neo', sans-serif" font-size="14">수</text>
  <rect x="120" y="140" width="250" height="22" fill="#161b22" rx="5"/>
  <rect x="120" y="140" width="88" height="22" fill="url(#grad_weekly)" rx="5"/>
  <text x="382" y="156" fill="#ffffff" font-family="'Segoe UI', 'Apple SD Gothic Neo', sans-serif" font-size="13" font-weight="bold">66</text>
  <text x="110" y="190" text-anchor="end" fill="#c9d1d9" font-family="'Segoe UI', 'Apple SD Gothic Neo', sans-serif" font-size="14">목</text>
  <rect x="120" y="174" width="250" height="22" fill="#161b22" rx="5"/>
  <rect x="120" y="174" width="171" height="22" fill="url(#grad_weekly)" rx="5"/>
  <text x="382" y="190" fill="#ffffff" font-family="'Segoe UI', 'Apple SD Gothic Neo', sans-serif" font-size="13" font-weight="bold">128</text>
  <text x="110" y="224" text-anchor="end" fill="#c9d1d9" font-family="'Segoe UI', 'Apple SD Gothic Neo', sans-serif" font-size="14">금</text>
  <rect x="120" y="208" width="250" height="22" fill="#161b22" rx="5"/>
  <rect x="120" y="208" width="250" height="22" fill="url(#grad_weekly)" rx="5"/>
  <text x="382" y="224" fill="#ffffff" font-family="'Segoe UI', 'Apple SD Gothic Neo', sans-serif" font-size="13" font-weight="bold">187</text>
  <text x="110" y="258" text-anchor="end" fill="#c9d1d9" font-family="'Segoe UI', 'Apple SD Gothic Neo', sans-serif" font-size="14">토</text>
  <rect x="120" y="242" width="250" height="22" fill="#161b22" rx="5"/>
  <rect x="120" y="242" width="211" height="22" fill="url(#grad_weekly)" rx="5"/>
  <text x="382" y="258" fill="#ffffff" font-family="'Segoe UI', 'Apple SD Gothic Neo', sans-serif" font-size="13" font-weight="bold">158</text>
  <text x="110" y="292" text-anchor="end" fill="#c9d1d9" font-family="'Segoe UI', 'Apple SD Gothic Neo', sans-serif" font-size="14">일</text>
  <rect x="120" y="276" width="250" height="22" fill="#161b22" rx="5"/>
  <rect x="120" y="276" width="147" height="22" fill="url(#grad_weekly)" rx="5"/>
  <text x="382" y="292" fill="#ffffff" font-family="'Segoe UI', 'Apple SD Gothic Neo', sans-serif" font-size="13" font-weight="bold">110</text>
  <line x1="20" y1="316" x2="460" y2="316" stroke="#21262d" stroke-width="1"/>
  <text x="30" y="338" fill="#8b949e" font-family="'Segoe UI', 'Apple SD Gothic Neo', sans-serif" font-size="12" font-weight="bold">집중 레포</text>
  <text x="110" y="363" text-anchor="end" fill="#c9d1d9" font-family="'Segoe UI', 'Apple SD Gothic Neo', sans-serif" font-size="12">AImark</text>
  <rect x="120" y="348" width="230" height="18" fill="#161b22" rx="4"/>
  <rect x="120" y="348" width="230" height="18" fill="url(#grad_cyan)" rx="4"/>
  <text x="360" y="362" fill="#ffffff" font-family="'Segoe UI', 'Apple SD Gothic Neo', sans-serif" font-size="12" font-weight="bold">365</text>
  <text x="110" y="393" text-anchor="end" fill="#c9d1d9" font-family="'Segoe UI', 'Apple SD Gothic Neo', sans-serif" font-size="12">Bible-Graph</text>
  <rect x="120" y="378" width="230" height="18" fill="#161b22" rx="4"/>
  <rect x="120" y="378" width="214" height="18" fill="url(#grad_cyan)" rx="4"/>
  <text x="360" y="392" fill="#ffffff" font-family="'Segoe UI', 'Apple SD Gothic Neo', sans-serif" font-size="12" font-weight="bold">339</text>
  <text x="110" y="423" text-anchor="end" fill="#c9d1d9" font-family="'Segoe UI', 'Apple SD Gothic Neo', sans-serif" font-size="12">Orchestrator</text>
  <rect x="120" y="408" width="230" height="18" fill="#161b22" rx="4"/>
  <rect x="120" y="408" width="55" height="18" fill="url(#grad_cyan)" rx="4"/>
  <text x="360" y="422" fill="#ffffff" font-family="'Segoe UI', 'Apple SD Gothic Neo', sans-serif" font-size="12" font-weight="bold">88</text>
  <text x="240" y="453" text-anchor="middle" fill="#8b949e" font-family="'Segoe UI', 'Apple SD Gothic Neo', sans-serif" font-size="11">활동일 7/7  ·  가장 활발: 금요일  ·  총 902건</text>
  <text x="240" y="478" text-anchor="middle" fill="#484f58"
        font-family="'Segoe UI', 'Apple SD Gothic Neo', sans-serif" font-size="10">2026-04-19 00:44 KST</text>
</svg>